# xmcd
#
# Track frame offsets:
#	150
#	33591
#	75262
#	106392
#	143091
#	206301
#
# Disc length: 3871 seconds
#
# Revision: 1
# Processed by: cddbd v1.5.2PL0 Copyright (c) Steve Scherf et al.
# Submitted via: audiograbber 1.83.01
#
DISCID=420f1d06
DTITLE=Grateful Dead - 89-10-23 Charlotte Coliseum, Charlotte NC
DYEAR=1900
DGENRE=
TTITLE0=Touch Of Grey
TTITLE1=Looks Like Rain
TTITLE2=We Can Run
TTITLE3=Crazy Fingers
TTITLE4=Terrapin Station
TTITLE5=Drums > Space
EXTD=
EXTT0=
EXTT1=
EXTT2=
EXTT3=
EXTT4=
EXTT5=
PLAYORDER=
